{"asset":{"version":"2.0","generator":"THREE.GLTFExporter"},"scenes":[{"nodes":[0],"name":"AuxScene"}],"scene":0,"nodes":[{"mesh":0}],"bufferViews":[{"buffer":0,"byteOffset":0,"byteLength":16524,"target":34962,"byteStride":12},{"buffer":0,"byteOffset":16524,"byteLength":16524,"target":34962,"byteStride":12}],"buffers":[{"byteLength":33048,"uri":"data:application/octet-stream;base64,"}],"accessors":[{"bufferView":0,"componentType":5126,"count":1377,"max":[249,8.300000190734863,249],"min":[-249,0.10000000149011612,-249],"type":"VEC3"},{"bufferView":1,"componentType":5126,"count":1377,"max":[0.8032137155532837,1,0.1713160276412964],"min":[-0.2545085549354553,0.29283833503723145,-0.6006746292114258],"type":"VEC3"}],"materials":[{"pbrMetallicRoughness":{"baseColorFactor":[0.5019607843137255,0.5019607843137255,0.5019607843137255,1],"metallicFactor":0,"roughnessFactor":1}}],"meshes":[{"primitives":[{"mode":4,"attributes":{"POSITION":0,"NORMAL":1},"material":0}]}]}